<?xml version="1.0" encoding="UTF-8" standalone="no"?>
<svg
   xmlns:dc="http://purl.org/dc/elements/1.1/"
   xmlns:cc="http://creativecommons.org/ns#"
   xmlns:rdf="http://www.w3.org/1999/02/22-rdf-syntax-ns#"
   xmlns:svg="http://www.w3.org/2000/svg"
   xmlns="http://www.w3.org/2000/svg"
   xmlns:sodipodi="http://sodipodi.sourceforge.net/DTD/sodipodi-0.dtd"
   xmlns:inkscape="http://www.inkscape.org/namespaces/inkscape"
   width="1500"
   height="1000"
   viewBox="0 0 188.98811 89.0853"
   version="1.1"
   id="svg1003"
   sodipodi:docname="Logo versetzt 1.5.svg"
   inkscape:version="1.0.2-2 (e86c870879, 2021-01-15)">
  <sodipodi:namedview
     pagecolor="#ffffff"
     bordercolor="#666666"
     borderopacity="1"
     objecttolerance="10"
     gridtolerance="10"
     guidetolerance="10"
     inkscape:pageopacity="0"
     inkscape:pageshadow="2"
     inkscape:window-width="1600"
     inkscape:window-height="837"
     id="namedview7"
     showgrid="false"
     units="px"
     inkscape:zoom="0.5038074"
     inkscape:cx="650.6085"
     inkscape:cy="431.84944"
     inkscape:window-x="-8"
     inkscape:window-y="-8"
     inkscape:window-maximized="1"
     inkscape:current-layer="svg1003"
     inkscape:document-rotation="0" />
  <defs
     id="defs997" />
  <metadata
     id="metadata1000">
    <rdf:RDF>
      <cc:Work
         rdf:about="">
        <dc:format>image/svg+xml</dc:format>
        <dc:type
           rdf:resource="http://purl.org/dc/dcmitype/StillImage" />
        <dc:title></dc:title>
      </cc:Work>
    </rdf:RDF>
  </metadata>
  <g
     id="layer1"
     transform="matrix(1.0340799,0,0,1.0300482,-12.600895,-120.79547)"
     style="opacity:0.999;stroke-width:1.01201;stroke-miterlimit:4;stroke-dasharray:none">
    <path
       d="m 127.40637,148.16702 c 0,13.16672 -10.67399,23.84037 -23.84106,23.84037 -13.167083,0 -23.840734,-10.67365 -23.840734,-23.84037 0,-13.16743 10.673651,-23.84108 23.840734,-23.84108 13.16707,0 23.84106,10.67365 23.84106,23.84108 z m -5.8046,15.65875 c -13.16707,0 -23.841069,-10.674 -23.841069,-23.84072 0,-5.8988 2.14277,-11.29736 5.691359,-15.45979 m 0.0222,-0.12206 c 3.61138,4.17901 5.79648,9.62519 5.79648,15.58185 0,13.16672 -10.674699,23.84072 -23.841065,23.84072 m 21.005805,-24.30286 c 0,1.62595 -1.31798,2.94393 -2.94394,2.94393 -1.62665,0 -2.94463,-1.31798 -2.94463,-2.94393 0,-1.62631 1.31798,-2.94429 2.94463,-2.94429 1.62596,0 2.94394,1.31798 2.94394,2.94429 z"
       style="fill:none;stroke:#b1de00;stroke-width:1.01201;stroke-linecap:butt;stroke-linejoin:miter;stroke-miterlimit:4;stroke-dasharray:none;stroke-opacity:1"
       id="path3748" />
  </g>
</svg>
